<svg width="32" height="33" viewBox="0 0 32 33" fill="none" xmlns="http://www.w3.org/2000/svg">
<path d="M7.06989 8.0699L7.06989 19.6129H0.499997L0.5 0.999996L19.1129 0.999996L19.1129 7.5699L7.56989 7.5699H7.06989L7.06989 8.0699Z" stroke="white"/>
<rect x="24.4302" y="0.500002" width="7.56991" height="7.56989" rx="3.78495" fill="white"/>
<path d="M11.3552 16.5C11.3552 14.4096 13.0498 12.715 15.1401 12.715L32.0003 12.715L32.0003 20.2849L15.1401 20.2849C13.0498 20.2849 11.3552 18.5904 11.3552 16.5Z" fill="white"/>
<path d="M18.925 24.9301H28.2153C30.3057 24.9301 32.0002 26.6247 32.0002 28.7151C32.0002 30.8054 30.3057 32.5 28.2153 32.5H18.925L18.925 24.9301Z" fill="white"/>
</svg>
