<svg width="136" height="48" viewBox="0 0 136 48" fill="none" xmlns="http://www.w3.org/2000/svg">
<path fill-rule="evenodd" clip-rule="evenodd" d="M24.4719 0L30.3158 5.85845L11.6867 24.532L29.2523 42.1415L23.4085 48L0 24.532L5.81392 18.7057L24.4719 0ZM42.0947 17.6842L48 23.5901L32.4337 39.1579L26.5263 33.252L42.0947 17.6842ZM33.2523 8.84211L39.1579 14.7474L23.5898 30.3158L17.6842 24.4105L33.2523 8.84211Z" fill="#FF3F00"/>
<path d="M86.173 17V30.6216H81.4432V21.5405L77.2811 30.6216H72.8919L68.7297 21.5405V30.6216H64V17H71.3784L75.0865 25.1162L78.7946 17H86.173Z" fill="white"/>
<path d="M96.8665 18.8919C98.4809 18.8919 99.7989 19.0874 100.821 19.4784C101.855 19.8694 102.624 20.5 103.129 21.3703C103.646 22.2279 103.911 23.3757 103.923 24.8135V30.6216H99.5719V29.1081C98.6259 29.6883 97.5791 30.1171 96.4313 30.3946C95.2962 30.6721 94.1926 30.8108 93.1205 30.8108C91.5187 30.8108 90.2448 30.527 89.2989 29.9595C88.3529 29.3919 87.88 28.4712 87.88 27.1973C87.88 25.7847 88.5043 24.7883 89.7529 24.2081C91.0016 23.6153 92.5529 23.3189 94.407 23.3189C96.0088 23.3189 97.7304 23.5081 99.5719 23.8865C99.5214 23.155 99.1935 22.6441 98.5881 22.3541C97.9953 22.064 97.1502 21.9189 96.0529 21.9189C95.0566 21.9189 94.0412 21.9946 93.007 22.1459C91.9854 22.2847 90.7872 22.5117 89.4124 22.827L88.807 19.8568C91.6953 19.2135 94.3818 18.8919 96.8665 18.8919ZM94.6151 27.7838C95.6493 27.7838 97.3016 27.5946 99.5719 27.2162V26.3459C97.8061 26.0937 96.2989 25.9676 95.0502 25.9676C94.0917 25.9676 93.4106 26.0369 93.007 26.1757C92.616 26.3144 92.4205 26.5541 92.4205 26.8946C92.4205 27.2225 92.5845 27.4559 92.9124 27.5946C93.2403 27.7207 93.8079 27.7838 94.6151 27.7838Z" fill="white"/>
<path d="M114.926 18.8919C115.443 18.8919 115.916 18.936 116.345 19.0243C116.774 19.1126 117.222 19.2577 117.689 19.4595V23.2432C117.083 23.0288 116.566 22.8838 116.137 22.8081C115.708 22.7198 115.248 22.6757 114.756 22.6757C113.974 22.6757 113.211 22.8459 112.467 23.1865C111.723 23.527 110.991 24.1514 110.272 25.0595V30.6216H105.921V19.2703H110.272V21.7297C110.852 20.7207 111.515 19.9955 112.259 19.5541C113.016 19.1126 113.905 18.8919 114.926 18.8919Z" fill="white"/>
<path d="M119.011 24.9459C119.011 22.9532 119.705 21.4459 121.092 20.4243C122.48 19.4027 124.485 18.8919 127.109 18.8919C129.467 18.8919 131.327 19.3081 132.69 20.1405C134.064 20.973 134.89 22.2279 135.168 23.9054H130.722C130.318 22.8333 129.114 22.2973 127.109 22.2973C125.86 22.2973 124.92 22.5117 124.29 22.9405C123.672 23.3694 123.363 24.0378 123.363 24.9459C123.363 25.8541 123.672 26.5225 124.29 26.9514C124.92 27.3802 125.86 27.5946 127.109 27.5946C129.114 27.5946 130.318 27.0586 130.722 25.9865H135.168C134.89 27.664 134.064 28.9189 132.69 29.7514C131.327 30.5838 129.467 31 127.109 31C124.485 31 122.48 30.4892 121.092 29.4676C119.705 28.4459 119.011 26.9387 119.011 24.9459Z" fill="white"/>
</svg>
