<svg width="128" height="48" viewBox="0 0 128 48" fill="none" xmlns="http://www.w3.org/2000/svg">
<path fill-rule="evenodd" clip-rule="evenodd" d="M27.8319 7.02954L27.8319 15.0586H15.0584L15.0584 27.8322H7.02929L7.0293 7.02954L27.8319 7.02954Z" fill="#FF3F00"/>
<rect x="32.9414" y="7.02954" width="8.02908" height="8.02908" rx="4.01454" fill="#FF3F00"/>
<path d="M19.0732 24.0001C19.0732 21.783 20.8706 19.9856 23.0878 19.9856L40.9707 19.9856L40.9707 28.0147H23.0878C20.8706 28.0147 19.0732 26.2173 19.0732 24.0001V24.0001Z" fill="#FF3F00"/>
<path d="M27.1016 32.9417H36.9554C39.1726 32.9417 40.97 34.739 40.97 36.9562V36.9562C40.97 39.1734 39.1726 40.9707 36.9554 40.9707H27.1016L27.1016 32.9417Z" fill="#FF3F00"/>
<path d="M78.173 17V30.6216H73.4432V21.5405L69.2811 30.6216H64.8919L60.7297 21.5405V30.6216H56V17H63.3784L67.0865 25.1162L70.7946 17H78.173Z" fill="white"/>
<path d="M88.8665 18.8919C90.4809 18.8919 91.7989 19.0874 92.8205 19.4784C93.8547 19.8694 94.6241 20.5 95.1286 21.3703C95.6457 22.2279 95.9106 23.3757 95.9232 24.8135V30.6216H91.5719V29.1081C90.6259 29.6883 89.5791 30.1171 88.4313 30.3946C87.2962 30.6721 86.1926 30.8108 85.1205 30.8108C83.5187 30.8108 82.2448 30.527 81.2989 29.9595C80.3529 29.3919 79.88 28.4712 79.88 27.1973C79.88 25.7847 80.5043 24.7883 81.7529 24.2081C83.0016 23.6153 84.5529 23.3189 86.407 23.3189C88.0088 23.3189 89.7304 23.5081 91.5719 23.8865C91.5214 23.155 91.1935 22.6441 90.5881 22.3541C89.9953 22.064 89.1502 21.9189 88.0529 21.9189C87.0566 21.9189 86.0412 21.9946 85.007 22.1459C83.9854 22.2847 82.7872 22.5117 81.4124 22.827L80.807 19.8568C83.6953 19.2135 86.3818 18.8919 88.8665 18.8919ZM86.6151 27.7838C87.6493 27.7838 89.3016 27.5946 91.5719 27.2162V26.3459C89.8061 26.0937 88.2989 25.9676 87.0502 25.9676C86.0917 25.9676 85.4106 26.0369 85.007 26.1757C84.616 26.3144 84.4205 26.5541 84.4205 26.8946C84.4205 27.2225 84.5845 27.4559 84.9124 27.5946C85.2403 27.7207 85.8079 27.7838 86.6151 27.7838Z" fill="white"/>
<path d="M106.926 18.8919C107.443 18.8919 107.916 18.936 108.345 19.0243C108.774 19.1126 109.222 19.2577 109.689 19.4595V23.2432C109.083 23.0288 108.566 22.8838 108.137 22.8081C107.708 22.7198 107.248 22.6757 106.756 22.6757C105.974 22.6757 105.211 22.8459 104.467 23.1865C103.723 23.527 102.991 24.1514 102.272 25.0595V30.6216H97.9209V19.2703H102.272V21.7297C102.852 20.7207 103.515 19.9955 104.259 19.5541C105.016 19.1126 105.905 18.8919 106.926 18.8919Z" fill="white"/>
<path d="M111.011 24.9459C111.011 22.9532 111.705 21.4459 113.092 20.4243C114.48 19.4027 116.485 18.8919 119.109 18.8919C121.467 18.8919 123.327 19.3081 124.69 20.1405C126.064 20.973 126.89 22.2279 127.168 23.9054H122.722C122.318 22.8333 121.114 22.2973 119.109 22.2973C117.86 22.2973 116.92 22.5117 116.29 22.9405C115.672 23.3694 115.363 24.0378 115.363 24.9459C115.363 25.8541 115.672 26.5225 116.29 26.9514C116.92 27.3802 117.86 27.5946 119.109 27.5946C121.114 27.5946 122.318 27.0586 122.722 25.9865H127.168C126.89 27.664 126.064 28.9189 124.69 29.7514C123.327 30.5838 121.467 31 119.109 31C116.485 31 114.48 30.4892 113.092 29.4676C111.705 28.4459 111.011 26.9387 111.011 24.9459Z" fill="white"/>
</svg>
