<svg width="218" height="48" viewBox="0 0 218 48" fill="none" xmlns="http://www.w3.org/2000/svg">
<path fill-rule="evenodd" clip-rule="evenodd" d="M27.8319 7.02954L27.8319 15.0586H15.0584L15.0584 27.8322H7.02929L7.0293 7.02954L27.8319 7.02954Z" fill="#FF3F00"/>
<rect x="32.9414" y="7.02954" width="8.02908" height="8.02908" rx="4.01454" fill="#FF3F00"/>
<path d="M19.0732 24.0001C19.0732 21.783 20.8706 19.9856 23.0878 19.9856L40.9707 19.9856L40.9707 28.0147H23.0878C20.8706 28.0147 19.0732 26.2173 19.0732 24.0001V24.0001Z" fill="#FF3F00"/>
<path d="M27.1016 32.9417H36.9554C39.1726 32.9417 40.97 34.739 40.97 36.9562V36.9562C40.97 39.1734 39.1726 40.9707 36.9554 40.9707H27.1016L27.1016 32.9417Z" fill="#FF3F00"/>
<path d="M146.834 16.95V27.7499H143.084V20.55L139.784 27.7499H136.304L133.004 20.55V27.7499H129.254V16.95H135.104L138.044 23.385L140.984 16.95H146.834Z" fill="white"/>
<path d="M155.312 18.45C156.592 18.45 157.637 18.605 158.447 18.915C159.267 19.225 159.877 19.725 160.277 20.415C160.687 21.095 160.897 22.005 160.907 23.145V27.7499H157.457V26.5499C156.707 27.0099 155.877 27.35 154.967 27.57C154.067 27.79 153.192 27.9 152.342 27.9C151.072 27.9 150.062 27.6749 149.312 27.2249C148.562 26.7749 148.187 26.0449 148.187 25.0349C148.187 23.9149 148.682 23.125 149.672 22.665C150.662 22.195 151.892 21.96 153.362 21.96C154.632 21.96 155.997 22.11 157.457 22.41C157.417 21.83 157.157 21.425 156.677 21.195C156.207 20.965 155.537 20.85 154.667 20.85C153.877 20.85 153.072 20.91 152.252 21.03C151.442 21.14 150.492 21.32 149.402 21.57L148.922 19.215C151.212 18.705 153.342 18.45 155.312 18.45ZM153.527 25.5C154.347 25.5 155.657 25.3499 157.457 25.05V24.36C156.057 24.16 154.862 24.06 153.872 24.06C153.112 24.06 152.572 24.1149 152.252 24.2249C151.942 24.3349 151.787 24.525 151.787 24.7949C151.787 25.0549 151.917 25.2399 152.177 25.3499C152.437 25.4499 152.887 25.5 153.527 25.5Z" fill="white"/>
<path d="M169.631 18.45C170.041 18.45 170.416 18.485 170.756 18.555C171.096 18.625 171.451 18.74 171.821 18.9V21.9C171.341 21.73 170.931 21.615 170.591 21.555C170.251 21.485 169.886 21.45 169.496 21.45C168.876 21.45 168.271 21.585 167.681 21.855C167.091 22.125 166.511 22.62 165.941 23.34V27.7499H162.491V18.75H165.941V20.7C166.401 19.9 166.926 19.325 167.516 18.975C168.116 18.625 168.821 18.45 169.631 18.45Z" fill="white"/>
<path d="M172.87 23.25C172.87 21.67 173.42 20.475 174.52 19.665C175.62 18.855 177.21 18.45 179.29 18.45C181.16 18.45 182.635 18.78 183.715 19.44C184.805 20.1 185.46 21.095 185.68 22.425H182.155C181.835 21.575 180.88 21.15 179.29 21.15C178.3 21.15 177.555 21.32 177.055 21.66C176.565 22 176.32 22.53 176.32 23.25C176.32 23.97 176.565 24.4999 177.055 24.8399C177.555 25.1799 178.3 25.3499 179.29 25.3499C180.88 25.3499 181.835 24.925 182.155 24.075H185.68C185.46 25.405 184.805 26.4 183.715 27.0599C182.635 27.7199 181.16 28.0499 179.29 28.0499C177.21 28.0499 175.62 27.645 174.52 26.835C173.42 26.025 172.87 24.83 172.87 23.25Z" fill="white"/>
<path d="M193.294 28.0499C191.194 28.0499 189.599 27.6299 188.509 26.7899C187.419 25.9499 186.874 24.77 186.874 23.25C186.874 21.73 187.419 20.55 188.509 19.71C189.599 18.87 191.194 18.45 193.294 18.45C195.394 18.45 196.989 18.87 198.079 19.71C199.169 20.55 199.714 21.73 199.714 23.25C199.714 24.77 199.169 25.9499 198.079 26.7899C196.989 27.6299 195.394 28.0499 193.294 28.0499ZM193.294 25.3499C194.254 25.3499 194.964 25.1849 195.424 24.8549C195.884 24.5149 196.114 23.98 196.114 23.25C196.114 22.52 195.884 21.99 195.424 21.66C194.964 21.32 194.254 21.15 193.294 21.15C192.334 21.15 191.624 21.32 191.164 21.66C190.704 21.99 190.474 22.52 190.474 23.25C190.474 23.98 190.704 24.5149 191.164 24.8549C191.624 25.1849 192.334 25.3499 193.294 25.3499Z" fill="white"/>
<path d="M209.671 18.45C212.721 18.45 214.246 19.945 214.246 22.935V27.7499H210.796V24.2249C210.796 23.205 210.586 22.465 210.166 22.005C209.746 21.535 209.016 21.3 207.976 21.3C206.856 21.3 205.996 21.545 205.396 22.035C204.806 22.525 204.511 23.2549 204.511 24.2249V27.7499H201.061V18.75H204.511V20.85C205.111 20.09 205.821 19.5 206.641 19.08C207.471 18.66 208.481 18.45 209.671 18.45Z" fill="white"/>
<path d="M70.7816 16.95V20.1H63.4316V21.675H69.8816V24.825H63.4316V27.75H59.6816V16.95H70.7816Z" fill="white" fill-opacity="0.72"/>
<path d="M78.2148 25.5C79.0148 25.5 79.6198 25.42 80.0298 25.26C80.4498 25.09 80.7398 24.845 80.8998 24.525H84.2748C83.9648 25.685 83.3098 26.565 82.3098 27.165C81.3198 27.755 79.9098 28.05 78.0798 28.05C76.0198 28.05 74.4148 27.64 73.2648 26.82C72.1148 26 71.5398 24.81 71.5398 23.25C71.5398 22.21 71.8098 21.335 72.3498 20.625C72.8898 19.905 73.6398 19.365 74.5998 19.005C75.5598 18.635 76.6748 18.45 77.9448 18.45C79.9348 18.45 81.4998 18.9 82.6398 19.8C83.7798 20.7 84.3498 22.04 84.3498 23.82H75.0348C75.1448 24.44 75.4598 24.875 75.9798 25.125C76.5098 25.375 77.2548 25.5 78.2148 25.5ZM77.9448 20.7C77.1848 20.7 76.5748 20.81 76.1148 21.03C75.6548 21.25 75.3348 21.61 75.1548 22.11H80.7798C80.5898 21.61 80.2598 21.25 79.7898 21.03C79.3298 20.81 78.7148 20.7 77.9448 20.7Z" fill="white" fill-opacity="0.72"/>
<path d="M85.8437 27.75V15.75H89.2937V27.75H85.8437Z" fill="white" fill-opacity="0.72"/>
<path d="M91.0879 17.85V15.75H94.5379V17.85H91.0879ZM91.0879 27.75V18.75H94.5379V27.75H91.0879Z" fill="white" fill-opacity="0.72"/>
<path d="M103.952 18.45C104.802 18.45 105.597 18.61 106.337 18.93C107.077 19.24 107.682 19.755 108.152 20.475C108.632 21.185 108.872 22.11 108.872 23.25C108.872 24.39 108.632 25.32 108.152 26.04C107.682 26.75 107.077 27.265 106.337 27.585C105.597 27.895 104.802 28.05 103.952 28.05C103.072 28.05 102.262 27.9 101.522 27.6C100.792 27.29 100.212 26.805 99.782 26.145V31.35H96.332V18.75H99.782V20.355C100.212 19.695 100.792 19.215 101.522 18.915C102.262 18.605 103.072 18.45 103.952 18.45ZM102.527 25.2C103.447 25.2 104.132 25.04 104.582 24.72C105.042 24.4 105.272 23.91 105.272 23.25C105.272 22.59 105.042 22.1 104.582 21.78C104.132 21.46 103.447 21.3 102.527 21.3C101.607 21.3 100.917 21.46 100.457 21.78C100.007 22.1 99.782 22.59 99.782 23.25C99.782 23.91 100.007 24.4 100.457 24.72C100.917 25.04 101.607 25.2 102.527 25.2Z" fill="white" fill-opacity="0.72"/>
<path d="M116.74 25.5C117.54 25.5 118.145 25.42 118.555 25.26C118.975 25.09 119.265 24.845 119.425 24.525H122.8C122.49 25.685 121.835 26.565 120.835 27.165C119.845 27.755 118.435 28.05 116.605 28.05C114.545 28.05 112.94 27.64 111.79 26.82C110.64 26 110.065 24.81 110.065 23.25C110.065 22.21 110.335 21.335 110.875 20.625C111.415 19.905 112.165 19.365 113.125 19.005C114.085 18.635 115.2 18.45 116.47 18.45C118.46 18.45 120.025 18.9 121.165 19.8C122.305 20.7 122.875 22.04 122.875 23.82H113.56C113.67 24.44 113.985 24.875 114.505 25.125C115.035 25.375 115.78 25.5 116.74 25.5ZM116.47 20.7C115.71 20.7 115.1 20.81 114.64 21.03C114.18 21.25 113.86 21.61 113.68 22.11H119.305C119.115 21.61 118.785 21.25 118.315 21.03C117.855 20.81 117.24 20.7 116.47 20.7Z" fill="white" fill-opacity="0.72"/>
</svg>
