<svg width="22" height="22" viewBox="0 0 22 22" fill="none" xmlns="http://www.w3.org/2000/svg">
<path d="M9.05556 10.625C10.1319 10.0694 10.7222 9.27083 10.7222 8.05556C10.7222 5.59028 8.88194 5 6.79861 5H1V17.2917H6.9375C9.19444 17.2917 11.2778 16.2153 11.2778 13.7153C11.2778 12.1875 10.5486 11.0417 9.05556 10.625ZM3.67361 7.08333H6.24306C7.21528 7.08333 8.08333 7.36111 8.08333 8.50694C8.08333 9.54861 7.38889 9.96528 6.41667 9.96528H3.67361V7.08333ZM6.59028 15.2083H3.67361V11.8056H6.625C7.84028 11.8056 8.56944 12.3264 8.56944 13.5764C8.56944 14.8264 7.66667 15.2083 6.59028 15.2083ZM19.0208 6.84028V5.625H14.0556V6.84028H19.0208ZM21 12.9861C21 10.3472 19.4375 8.125 16.6597 8.125C13.9167 8.125 12.0764 10.1736 12.0764 12.8472C12.0764 15.625 13.8472 17.5347 16.6597 17.5347C18.7778 17.5347 20.1667 16.5625 20.8264 14.5486H18.6736C18.4306 15.3125 17.4583 15.6944 16.7292 15.6944C15.3056 15.6944 14.5417 14.8611 14.5417 13.4375H20.9653C20.9653 13.2986 21 13.125 21 12.9861ZM14.5417 11.875C14.6111 10.7292 15.4097 10 16.5556 10C17.8056 10 18.4306 10.6944 18.5347 11.875H14.5417Z" fill="#2958FF"/>
</svg>
