<svg width="22" height="22" viewBox="0 0 22 22" fill="none" xmlns="http://www.w3.org/2000/svg">
<path d="M11 0C4.92339 0 0 4.96774 0 11C0 17.0766 4.92339 22 11 22C17.0323 22 22 17.0766 22 11C22 4.96774 17.0323 0 11 0ZM18.2298 5.10081C19.5605 6.69758 20.3589 8.7379 20.3589 10.9556C20.0484 10.8669 16.9435 10.246 13.8387 10.6452C13.5726 10.0242 13.3508 9.49194 12.996 8.78226C16.5 7.3629 18.0524 5.36694 18.2298 5.10081ZM17.2097 3.99194C17.0323 4.25806 15.6129 6.16532 12.2863 7.40726C10.7339 4.56855 9.04839 2.2621 8.78226 1.90726C11.754 1.19758 14.9032 1.95161 17.2097 3.99194ZM6.96371 2.52823C7.22984 2.88306 8.91532 5.18952 10.4677 7.98387C6.07661 9.1371 2.21774 9.1371 1.77419 9.09274C2.39516 6.20968 4.34677 3.77016 6.96371 2.52823ZM1.59677 11.0444C1.59677 10.9556 1.59677 10.8669 1.59677 10.7339C1.99597 10.7782 6.56452 10.8226 11.2218 9.40323C11.5323 9.93548 11.754 10.4677 12.0202 11C8.60484 11.9758 5.5 14.7258 3.99194 17.2984C2.48387 15.6573 1.59677 13.4395 1.59677 11.0444ZM5.18952 18.4516C6.20968 16.4556 8.87097 13.8387 12.6411 12.5524C13.9718 15.9677 14.504 18.8508 14.6371 19.6935C11.621 20.9798 7.98387 20.625 5.18952 18.4516ZM16.2339 18.8065C16.1452 18.2742 15.6129 15.5242 14.4153 12.1089C17.3427 11.6653 19.9153 12.4194 20.2702 12.5081C19.8266 15.125 18.3185 17.3871 16.2339 18.8065Z" fill="#2958FF"/>
</svg>
