<svg width="22" height="22" viewBox="0 0 22 22" fill="none" xmlns="http://www.w3.org/2000/svg">
<path d="M6.01786 19.9598V7.94643H2.28125V19.9598H6.01786ZM4.12946 6.33929C5.33482 6.33929 6.29911 5.33482 6.29911 4.12946C6.29911 2.96429 5.33482 2 4.12946 2C2.96429 2 2 2.96429 2 4.12946C2 5.33482 2.96429 6.33929 4.12946 6.33929ZM19.9598 19.9598H20V13.3705C20 10.1562 19.2768 7.66518 15.5 7.66518C13.692 7.66518 12.4866 8.66964 11.9643 9.59375H11.9241V7.94643H8.34821V19.9598H12.0848V14.0134C12.0848 12.4464 12.3661 10.9598 14.2946 10.9598C16.2232 10.9598 16.2634 12.7277 16.2634 14.1339V19.9598H19.9598Z" fill="#2958FF"/>
</svg>
