<svg viewBox="0 0 32 32" fill="none" xmlns="http://www.w3.org/2000/svg">
<path d="M14.0556 15.625C15.1319 15.0694 15.7222 14.2708 15.7222 13.0556C15.7222 10.5903 13.8819 10 11.7986 10H6V22.2917H11.9375C14.1944 22.2917 16.2778 21.2153 16.2778 18.7153C16.2778 17.1875 15.5486 16.0417 14.0556 15.625ZM8.67361 12.0833H11.2431C12.2153 12.0833 13.0833 12.3611 13.0833 13.5069C13.0833 14.5486 12.3889 14.9653 11.4167 14.9653H8.67361V12.0833ZM11.5903 20.2083H8.67361V16.8056H11.625C12.8403 16.8056 13.5694 17.3264 13.5694 18.5764C13.5694 19.8264 12.6667 20.2083 11.5903 20.2083ZM24.0208 11.8403V10.625H19.0556V11.8403H24.0208ZM26 17.9861C26 15.3472 24.4375 13.125 21.6597 13.125C18.9167 13.125 17.0764 15.1736 17.0764 17.8472C17.0764 20.625 18.8472 22.5347 21.6597 22.5347C23.7778 22.5347 25.1667 21.5625 25.8264 19.5486H23.6736C23.4306 20.3125 22.4583 20.6944 21.7292 20.6944C20.3056 20.6944 19.5417 19.8611 19.5417 18.4375H25.9653C25.9653 18.2986 26 18.125 26 17.9861ZM19.5417 16.875C19.6111 15.7292 20.4097 15 21.5556 15C22.8056 15 23.4306 15.6944 23.5347 16.875H19.5417Z" fill="#0B0B0B"/>
</svg>
