<svg viewBox="0 0 32 32" fill="none" xmlns="http://www.w3.org/2000/svg">
<path d="M16 5C9.92339 5 5 9.96774 5 16C5 22.0766 9.92339 27 16 27C22.0323 27 27 22.0766 27 16C27 9.96774 22.0323 5 16 5ZM23.2298 10.1008C24.5605 11.6976 25.3589 13.7379 25.3589 15.9556C25.0484 15.8669 21.9435 15.246 18.8387 15.6452C18.5726 15.0242 18.3508 14.4919 17.996 13.7823C21.5 12.3629 23.0524 10.3669 23.2298 10.1008ZM22.2097 8.99194C22.0323 9.25806 20.6129 11.1653 17.2863 12.4073C15.7339 9.56855 14.0484 7.2621 13.7823 6.90726C16.754 6.19758 19.9032 6.95161 22.2097 8.99194ZM11.9637 7.52823C12.2298 7.88306 13.9153 10.1895 15.4677 12.9839C11.0766 14.1371 7.21774 14.1371 6.77419 14.0927C7.39516 11.2097 9.34677 8.77016 11.9637 7.52823ZM6.59677 16.0444C6.59677 15.9556 6.59677 15.8669 6.59677 15.7339C6.99597 15.7782 11.5645 15.8226 16.2218 14.4032C16.5323 14.9355 16.754 15.4677 17.0202 16C13.6048 16.9758 10.5 19.7258 8.99194 22.2984C7.48387 20.6573 6.59677 18.4395 6.59677 16.0444ZM10.1895 23.4516C11.2097 21.4556 13.871 18.8387 17.6411 17.5524C18.9718 20.9677 19.504 23.8508 19.6371 24.6935C16.621 25.9798 12.9839 25.625 10.1895 23.4516ZM21.2339 23.8065C21.1452 23.2742 20.6129 20.5242 19.4153 17.1089C22.3427 16.6653 24.9153 17.4194 25.2702 17.5081C24.8266 20.125 23.3185 22.3871 21.2339 23.8065Z" fill="#0B0B0B"/>
</svg>
