<svg viewBox="0 0 32 32" fill="none" xmlns="http://www.w3.org/2000/svg">
<path d="M11.0179 24.9598V12.9464H7.28125V24.9598H11.0179ZM9.12946 11.3393C10.3348 11.3393 11.2991 10.3348 11.2991 9.12946C11.2991 7.96429 10.3348 7 9.12946 7C7.96429 7 7 7.96429 7 9.12946C7 10.3348 7.96429 11.3393 9.12946 11.3393ZM24.9598 24.9598H25V18.3705C25 15.1563 24.2768 12.6652 20.5 12.6652C18.692 12.6652 17.4866 13.6696 16.9643 14.5938H16.9241V12.9464H13.3482V24.9598H17.0848V19.0134C17.0848 17.4464 17.3661 15.9598 19.2946 15.9598C21.2232 15.9598 21.2634 17.7277 21.2634 19.1339V24.9598H24.9598Z" fill="#0B0B0B"/>
</svg>
